<?xml version="1.0" standalone="no"?><!DOCTYPE svg PUBLIC "-//W3C//DTD SVG 1.1//EN" "http://www.w3.org/Graphics/SVG/1.1/DTD/svg11.dtd"><svg t="1520926643080" class="icon" style="" viewBox="0 0 1024 1024" version="1.1" xmlns="http://www.w3.org/2000/svg" p-id="3170" xmlns:xlink="http://www.w3.org/1999/xlink" width="200" height="200"><defs><style type="text/css"></style></defs><path d="M905.05088 103.50976c-24.99328-24.99328-57.75232-37.48992-90.51008-37.48992h-614.4c-32.75776 0-65.51552 12.49664-90.5088 37.48992s-37.4912 57.75232-37.4912 90.51008v614.4c0 32.75776 12.49664 65.51552 37.4912 90.51008 24.99328 24.992 57.75104 37.48992 90.5088 37.48992h614.4c32.75776 0 65.5168-12.49792 90.51008-37.48992 24.99328-24.99456 37.48992-57.75232 37.48992-90.51008v-614.4c0-32.75776-12.49536-65.51552-37.48992-90.51008z m-74.03264 338.1696l-163.96672 119.12832c-4.22656 3.07072-7.56224 7.45088-9.30048 12.8s-1.61536 10.85312 0 15.8208l62.6304 192.7552c2.88256 8.86912-0.08192 18.94656-8.032 24.7232-7.95008 5.77536-18.44992 5.48096-25.9968-0.00256l-163.96544-119.12704c-4.22784-3.06944-9.42336-4.88832-15.04768-4.88832s-10.82112 1.8176-15.04768 4.88832l-163.96544 119.12704c-7.5456 5.48352-18.04672 5.77792-25.99552 0-7.95008-5.77536-10.91584-15.8528-8.03328-24.72192l62.62912-192.75264c1.61408-4.96896 1.73824-10.47424 0-15.82208s-5.07264-9.73056-9.30048-12.8l-163.96672-119.12832c-7.5456-5.48224-11.06944-15.37792-8.03328-24.7232 3.03744-9.344 11.70432-15.27936 21.0304-15.27936h202.67392c5.22496 0 10.49728-1.58208 15.0464-4.88832s7.68512-7.83104 9.30048-12.8l62.6304-192.75776c2.88256-8.86912 11.20384-15.28064 21.02912-15.28064s18.14912 6.41152 21.02912 15.28064l62.6304 192.75776c1.61536 4.96896 4.75008 9.49376 9.30048 12.8s9.82272 4.88832 15.04768 4.88832h202.6752c9.32608 0 17.99424 5.93536 21.0304 15.27936 3.04 9.34528-0.48512 19.24096-8.032 24.7232z" fill="" p-id="3171"></path></svg>