<?xml version="1.0" standalone="no"?>
<!DOCTYPE svg PUBLIC "-//W3C//DTD SVG 20010904//EN"
 "http://www.w3.org/TR/2001/REC-SVG-20010904/DTD/svg10.dtd">
<svg version="1.0" xmlns="http://www.w3.org/2000/svg"
 width="300.000000pt" height="205.000000pt" viewBox="0 0 300.000000 205.000000"
 preserveAspectRatio="xMidYMid meet">
<metadata>
Created by potrace 1.10, written by Peter Selinger 2001-2011
</metadata>
<g transform="translate(0.000000,205.000000) scale(0.100000,-0.100000)"
fill="#000000" stroke="none">
<path d="M1415 1933 c-359 -45 -671 -298 -784 -638 -182 -546 177 -1127 751
-1216 119 -18 303 -7 411 25 309 92 539 314 641 618 55 162 57 439 4 495 -26
28 -76 31 -109 5 -22 -18 -22 -24 -23 -198 -1 -167 -3 -184 -28 -255 -47 -134
-93 -206 -197 -309 -148 -147 -296 -214 -501 -227 -225 -14 -427 59 -590 214
-159 150 -240 336 -240 552 0 302 159 560 426 694 130 65 310 97 438 78 99
-14 136 7 136 79 0 48 -30 73 -96 81 -61 8 -187 9 -239 2z m269 -38 c36 -15
38 -18 38 -55 0 -44 16 -40 -180 -40 -92 0 -141 -4 -137 -10 3 -6 1 -10 -4
-10 -6 0 -11 6 -11 13 0 8 -2 9 -8 1 -4 -7 -33 -17 -64 -24 -32 -6 -60 -16
-64 -21 -3 -5 -10 -6 -16 -3 -6 4 -13 3 -17 -2 -10 -14 -111 -63 -104 -50 6
11 -14 -6 -58 -49 -20 -20 -20 -20 -13 0 7 20 7 20 -9 0 -8 -11 -13 -24 -10
-29 4 -5 1 -6 -5 -2 -7 4 -23 -5 -38 -21 -15 -15 -31 -26 -38 -25 -6 2 -8 1
-4 -3 7 -7 -10 -31 -54 -77 -15 -16 -30 -37 -33 -48 -4 -11 -11 -17 -17 -14
-7 5 -9 1 -5 -9 3 -10 3 -17 -1 -17 -13 0 -62 -105 -69 -149 -2 -14 -9 -33
-15 -44 -26 -50 -31 -349 -6 -393 5 -9 18 -55 24 -83 1 -8 9 -18 16 -22 7 -5
9 -9 4 -9 -5 0 -3 -7 4 -15 6 -8 8 -20 4 -26 -4 -7 -3 -9 3 -6 6 4 13 -6 17
-24 3 -17 10 -28 15 -25 5 3 14 -8 21 -24 7 -17 17 -30 22 -30 5 0 7 -4 4 -9
-4 -5 7 -22 23 -37 17 -15 27 -32 24 -37 -3 -6 -1 -7 5 -3 11 7 38 -32 34 -47
-1 -5 2 -6 8 -2 5 3 20 -5 32 -18 13 -14 39 -34 59 -45 20 -11 47 -26 60 -34
13 -7 30 -20 37 -28 7 -8 11 -10 8 -3 -4 6 13 2 36 -10 24 -12 45 -25 46 -30
2 -4 7 -5 11 -3 4 3 27 -2 51 -10 126 -44 381 -34 483 18 10 5 22 6 27 3 6 -4
10 -2 10 3 0 5 10 13 23 17 12 4 24 8 27 9 3 1 25 13 50 26 43 23 50 26 68 29
5 0 14 11 21 24 7 13 27 32 44 42 32 19 91 75 79 75 -4 0 -2 4 3 8 6 4 28 32
50 62 22 30 43 57 47 58 5 2 6 8 2 13 -3 5 0 9 6 9 6 0 9 4 5 9 -3 5 -1 12 5
16 5 3 10 15 10 26 0 13 4 18 12 13 7 -4 8 -3 4 4 -4 7 0 24 8 39 29 55 40
129 41 288 0 88 4 166 9 173 11 18 61 15 79 -5 28 -32 37 -205 17 -342 -9 -58
-15 -79 -22 -69 -7 10 -8 8 -4 -5 7 -22 -22 -117 -36 -117 -5 0 -6 -5 -2 -11
3 -6 2 -14 -4 -18 -7 -4 -13 -17 -15 -29 -2 -12 -9 -28 -15 -34 -7 -7 -12 -18
-12 -26 0 -7 -5 -10 -12 -6 -8 5 -9 2 -5 -9 4 -10 1 -17 -5 -17 -6 0 -9 -3 -6
-6 4 -3 -8 -21 -25 -39 -44 -47 -59 -65 -54 -65 3 0 -16 -21 -42 -48 -25 -26
-49 -46 -53 -44 -5 2 -8 -1 -8 -6 0 -6 -19 -19 -42 -31 -24 -12 -42 -24 -41
-28 2 -5 -10 -12 -25 -18 -15 -5 -38 -17 -52 -26 -14 -10 -36 -20 -50 -24 -14
-4 -32 -13 -40 -20 -8 -7 -31 -16 -50 -21 -19 -4 -37 -8 -40 -9 -3 -1 -23 -5
-45 -10 -22 -4 -49 -9 -60 -12 -41 -8 -235 -13 -235 -5 0 4 -26 8 -57 9 -56 3
-147 27 -170 46 -7 5 -13 7 -13 3 0 -4 -13 0 -30 9 -16 8 -33 16 -37 16 -19 3
-41 14 -83 43 -25 17 -45 28 -45 26 0 -3 -7 1 -15 8 -45 38 -64 52 -72 52 -4
0 -7 6 -5 13 1 6 -3 11 -10 10 -7 -2 -10 6 -8 17 2 12 0 18 -5 15 -10 -6 -63
44 -95 90 -11 15 -28 36 -37 47 -10 10 -15 18 -10 18 4 0 1 4 -6 9 -7 4 -14
14 -15 22 -2 8 -13 33 -26 54 -13 22 -24 50 -25 62 0 11 -4 19 -7 17 -11 -6
-20 27 -14 46 3 10 -2 25 -11 34 -9 10 -14 20 -10 23 3 3 0 13 -6 21 -14 17
-25 327 -11 319 4 -3 8 18 8 46 0 30 5 52 12 54 7 3 9 11 6 20 -4 11 -2 14 5
9 7 -4 10 -2 6 7 -5 14 31 124 47 142 5 5 9 17 9 26 0 10 10 25 22 33 12 9 18
16 13 16 -5 0 0 7 11 15 10 8 15 15 10 15 -6 0 -1 7 10 16 10 8 12 12 4 8 -13
-7 -13 -5 -1 9 7 9 17 14 22 11 5 -3 9 0 9 5 0 6 0 13 1 15 1 9 124 126 132
126 4 0 5 5 2 10 -4 6 -3 10 2 9 22 -4 43 2 38 11 -3 5 5 15 19 22 14 6 26 15
26 19 0 7 60 38 75 38 3 0 20 8 38 18 66 36 190 71 271 78 26 2 50 6 52 8 10
10 185 -5 218 -18z"/>
<path d="M2090 1773 c-57 -21 -86 -42 -111 -82 -74 -116 8 -265 146 -265 141
0 221 153 142 272 -34 52 -129 92 -177 75z m127 -59 c18 -16 37 -42 42 -57 14
-36 15 -120 1 -112 -5 3 -8 0 -5 -7 5 -15 -21 -48 -55 -70 -17 -11 -42 -15
-80 -12 -77 6 -80 6 -74 16 3 4 1 8 -3 8 -5 0 -18 7 -29 16 -10 8 -13 13 -7 9
9 -4 11 -1 7 9 -3 9 -10 14 -14 11 -13 -8 -20 23 -19 78 1 62 26 112 57 111
11 0 20 4 19 9 -3 15 42 26 88 23 28 -2 50 -12 72 -32z"/>
</g>
</svg>
