<?xml version="1.0" standalone="no"?><!DOCTYPE svg PUBLIC "-//W3C//DTD SVG 1.1//EN" "http://www.w3.org/Graphics/SVG/1.1/DTD/svg11.dtd"><svg t="1520929244751" class="icon" style="" viewBox="0 0 1024 1024" version="1.1" xmlns="http://www.w3.org/2000/svg" p-id="6184" xmlns:xlink="http://www.w3.org/1999/xlink" width="200" height="200"><defs><style type="text/css"></style></defs><path d="M740.032 742.976c-9.984 4.032-19.008 6.976-27.008 9.024-14.016 4.032-27.008 8-38.976 12.032-16 4.032-33.024 6.976-51.008 9.024s-37.056 3.008-57.024 3.008c-41.984 0-79.04-6.016-110.976-17.984-36.032-12.032-68.032-30.976-96-57.024-49.984-46.016-75.008-110.016-75.008-192 0-67.968 24-126.976 72-177.024C381.952 306.048 412.992 286.016 449.024 272 489.024 256 534.016 248 584 248c28.032 0 56 3.008 84.032 9.024 22.016 4.032 40 9.024 54.016 14.976l-12.032 33.024c-17.984-8-36.032-14.976-54.016-20.992C633.984 280 609.024 278.016 580.992 278.016c-82.048 0-145.984 22.976-192 68.992C345.024 388.992 323.008 444.032 323.008 512c0 68.032 22.016 124.032 65.984 168 43.968 41.984 105.024 62.976 182.976 62.976 57.984 0 100.992-6.976 129.024-20.992L700.992 545.024 566.016 545.024 566.016 515.008l174.016 0L740.032 742.976z" p-id="6185"></path></svg>